<?xml version="1.0" encoding="UTF-8"?>
<svg height="26" viewBox="0 0 152 26" width="152" xmlns="http://www.w3.org/2000/svg"><g fill="none" fill-rule="evenodd"><path d="M123.691 7.965l-5.366.965a1.637 1.637 0 0 0 .578 3.222l5.366-.965a2.057 2.057 0 0 1 2.379 1.326c.416.95.06 2.06-.83 2.592l-7.876 5.1a2.306 2.306 0 0 1-2.386.092 2.3 2.3 0 0 1-1.22-2.052V5.686a5.534 5.534 0 0 0-2.931-4.929 5.533 5.533 0 0 0-5.73.22L85.866 13.81a5.308 5.308 0 0 0-2.095 6.544 5.309 5.309 0 0 0 6 3.344l17.3-3.11a1.637 1.637 0 0 0-.578-3.222l-17.3 3.11a2.056 2.056 0 0 1-2.378-1.325 2.058 2.058 0 0 1 .832-2.593l19.808-12.834a2.305 2.305 0 0 1 2.386-.092 2.306 2.306 0 0 1 1.22 2.053v12.563a5.535 5.535 0 0 0 2.931 4.929c.823.452 1.747.69 2.686.693a5.585 5.585 0 0 0 3.044-.914l7.876-5.1a5.3 5.3 0 0 0 2.1-6.546 5.31 5.31 0 0 0-6-3.344m27.7 3.344a5.307 5.307 0 0 0-6-3.344l-5.366.965a1.637 1.637 0 0 0 .578 3.222l5.366-.965a2.056 2.056 0 0 1 2.378 1.325c.416.95.061 2.06-.829 2.592l-7.877 5.1a2.306 2.306 0 0 1-2.386.092 2.3 2.3 0 0 1-1.224-2.049V1.709a1.638 1.638 0 0 0-3.277 0v16.539a5.536 5.536 0 0 0 2.937 4.929c.824.452 1.747.69 2.687.693a5.585 5.585 0 0 0 3.044-.914l7.877-5.1a5.307 5.307 0 0 0 2.092-6.547" fill="#009B3A" fill-rule="nonzero"></path><path class="logo-text" d="M47.715 6.992a.721.721 0 0 0-.631.416c-.27.58-.86.942-1.5.917a1.581 1.581 0 0 1-1.7-1.521 8.945 8.945 0 0 1 0-1.535 1.585 1.585 0 0 1 1.7-1.524 1.577 1.577 0 0 1 1.5.923c.117.244.36.402.631.41a.639.639 0 0 0 .7-.665 1.376 1.376 0 0 0-.208-.655 2.875 2.875 0 0 0-2.64-1.4 2.92 2.92 0 0 0-3.1 2.71 12.331 12.331 0 0 0 0 1.941 2.926 2.926 0 0 0 3.1 2.713 2.876 2.876 0 0 0 2.643-1.406c.12-.198.19-.423.2-.655a.638.638 0 0 0-.7-.664l.005-.005zM20.61 9.597h2.865a2.717 2.717 0 0 0 2.962-3 2.636 2.636 0 0 0-2.962-2.82h-2.5V1.453h4.211a.685.685 0 0 0 .759-.7.681.681 0 0 0-.759-.685h-4.569a1.006 1.006 0 0 0-1.118 1.118v7.287a1.006 1.006 0 0 0 1.118 1.118l-.007.006zm.363-4.519h2.35a1.4 1.4 0 0 1 1.609 1.545 1.42 1.42 0 0 1-1.609 1.585h-2.348V5.079l-.002-.001zm17.026-2.724c-.93 0-1.847.234-2.663.682-.329.195-.366.349-.366.9v7.324a.683.683 0 0 0 .715.759.686.686 0 0 0 .722-.759V9.35c.54.242 1.124.367 1.716.369a2.839 2.839 0 0 0 2.949-2.7c.05-.654.05-1.311 0-1.965a2.872 2.872 0 0 0-3.073-2.7zm1.642 4.45a1.561 1.561 0 0 1-1.689 1.528 3.084 3.084 0 0 1-1.545-.4V4.141a3.053 3.053 0 0 1 1.545-.4 1.56 1.56 0 0 1 1.689 1.531 9 9 0 0 1 0 1.535v-.003zM30.41 2.35a5.444 5.444 0 0 0-1.992.393c-.39.159-.557.386-.554.688a.606.606 0 0 0 .608.617 1.57 1.57 0 0 0 .53-.137c.415-.16.855-.246 1.3-.252 1.1 0 1.554.416 1.554 1.269v.574a6.376 6.376 0 0 0-1.749-.245c-1.81 0-2.693 1.031-2.693 2.163 0 1.309.991 2.293 2.743 2.293.99.02 1.965-.235 2.817-.738a.554.554 0 0 0 .269-.537V4.959c0-1.79-1.031-2.61-2.831-2.61l-.002.001zm1.446 5.778a3.521 3.521 0 0 1-1.571.386c-.923 0-1.5-.4-1.5-1.094 0-.628.494-1.115 1.494-1.115a5.229 5.229 0 0 1 1.578.252l-.001 1.571zm-16.39.292l-2.478-2.48 2.35-2.35a.794.794 0 0 0 .275-.572.586.586 0 0 0-.611-.6.747.747 0 0 0-.565.278l-2.388 2.383a.612.612 0 0 1-.455.2h-.487V3.173a.682.682 0 0 0-.719-.759.681.681 0 0 0-.713.759v5.72a.684.684 0 0 0 .715.762.685.685 0 0 0 .719-.762V6.611h.408c.173 0 .34.072.456.2l2.548 2.548c.145.18.362.287.593.292a.615.615 0 0 0 .641-.635.831.831 0 0 0-.289-.6v.004zm-6.891.538a1.267 1.267 0 0 0-.1-.465L5.822 1.257C5.503.374 5.036-.002 4.294-.002S3.085.374 2.766 1.257L.097 8.497c-.06.147-.095.305-.1.464a.691.691 0 0 0 .715.688.739.739 0 0 0 .735-.588l.863-2.46h3.945l.87 2.467a.733.733 0 0 0 .729.581.693.693 0 0 0 .721-.691zm-5.8-3.671L4.09 1.54c.05-.131.094-.178.191-.178s.141.047.188.178l1.322 3.747H2.775z" fill="#10002B" fill-rule="nonzero"></path><path class="logo-text" d="M.451 24.389c.2 0 .369-.074.418-.398l1.288-8.806c.036-.258.102-.332.237-.332.111 0 .177.057.234.29l2.017 8.233c.18.722.513 1.013 1.078 1.013.55 0 .882-.291 1.062-1.005l2.042-8.24c.057-.234.123-.291.234-.291.135 0 .209.074.245.332l1.317 8.798c.04.266.16.406.434.406.246 0 .439-.131.439-.377 0-.066-.004-.132-.02-.23l-1.333-8.806C10.036 14.258 9.639 14 9.06 14c-.53 0-.886.258-1.03.853l-2.033 8.384c-.05.205-.102.3-.254.3-.152 0-.189-.095-.238-.292l-2.042-8.392C3.321 14.258 2.96 14 2.431 14c-.578 0-.976.258-1.086.968L.016 23.86a.682.682 0 0 0-.016.152c0 .246.21.377.451.377zm16.095-7.663c-1.758 0-3.005 1.193-3.169 2.923-.053.542-.053 1.366.009 1.911.18 1.73 1.402 2.894 3.23 2.894.84 0 1.558-.16 2.21-.483.23-.12.418-.271.41-.488-.008-.222-.152-.37-.353-.37-.147 0-.233.046-.414.12a4.608 4.608 0 0 1-1.853.381c-1.386 0-2.28-.832-2.402-2.091-.013-.168-.029-.34-.033-.529h4.723c.578 0 .664-.102.664-.71v-.532c0-1.75-1.14-3.026-3.022-3.026zm2.177 3.49h-4.542c.004-.19.02-.366.033-.53.119-1.258 1.016-2.12 2.332-2.12 1.39 0 2.313.927 2.177 2.65zm9.618 3.283h-.665v-5.854c0-.636-.18-.816-.82-.816h-3.329c-.635 0-.816.18-.816.816v1.742c0 2.398-.282 4.112-1.213 4.112h-.074c-.266 0-.418.16-.418.447v1.607c0 .291.152.447.418.447.267 0 .418-.156.418-.447v-1.23h6.08v1.23c0 .291.152.447.419.447.266 0 .418-.156.418-.447v-1.607c0-.287-.152-.447-.418-.447zm-4.79-4.124v-1.722h3.285v5.846h-4.08c.657-.775.796-2.3.796-4.124zm12.657-2.612c-.357 0-.566.218-.886.701l-3.911 5.953h-.029c.029-.844.041-2.82.041-4.276v-1.93c0-.288-.151-.448-.418-.448-.27 0-.422.16-.422.447v6.461c0 .464.283.718.66.718.369 0 .537-.226.877-.738l3.92-5.97h.045c-.029 1.087-.029 2.178-.029 3.342v2.915c0 .29.152.45.418.45.267 0 .418-.16.418-.45v-6.453c0-.463-.295-.722-.684-.722zM46.17 23.5h-.664V17.21c0-.287-.152-.447-.422-.447-.267 0-.419.16-.419.447v6.29h-4.341v-6.29c0-.287-.152-.447-.418-.447-.271 0-.423.16-.423.447v6.297c0 .636.185.816.82.816h5.449v1.23c0 .291.151.447.418.447.266 0 .418-.156.418-.447v-1.607c0-.287-.152-.447-.418-.447zm7.94-6.736c-.356 0-.565.218-.885.701l-3.911 5.953h-.029c.029-.844.041-2.82.041-4.276v-1.93c0-.288-.152-.448-.418-.448-.27 0-.422.16-.422.447v6.461c0 .464.283.718.66.718.369 0 .537-.226.877-.738l3.92-5.97h.045c-.03 1.087-.03 2.178-.03 3.342v2.915c0 .29.153.45.42.45.266 0 .417-.16.417-.45v-6.453c0-.463-.295-.722-.684-.722zm9.102 0c-.267 0-.418.16-.418.447v2.882h-4.56V17.21c0-.287-.15-.447-.417-.447-.271 0-.423.16-.423.447v6.728c0 .29.152.45.423.45.266 0 .418-.16.418-.45V20.9h4.559v3.038c0 .29.151.45.418.45.266 0 .418-.16.418-.45V17.21c0-.287-.152-.447-.418-.447zm5.182 7.691c1.418 0 2.505-.508 2.894-.795.144-.11.189-.189.189-.394v-3.964c0-1.771-1.033-2.603-2.714-2.603-.874 0-1.75.246-2.206.455-.275.123-.406.238-.398.463.009.217.18.398.39.398a.865.865 0 0 0 .357-.103c.36-.156 1.07-.373 1.762-.373 1.333 0 1.968.55 1.968 1.808v.722c-.852-.246-1.447-.332-2.168-.332-1.882 0-2.854 1.086-2.854 2.328 0 1.464 1.103 2.39 2.78 2.39zm.131-.84c-1.333 0-2.07-.566-2.07-1.533 0-.87.651-1.521 2.07-1.521.693 0 1.27.102 2.111.348v2.157c-.586.32-1.381.549-2.111.549z" fill="#10002B"></path></g></svg>